# xmcd
#
# Track frame offsets:
#	150
#	17527
#	43785
#	68736
#	86003
#	106708
#	131214
#	156480
#	174768
#	194262
#	207661
#	229534
#	252030
#
# Disc length: 3598 seconds
#
# Revision: 1
# Processed by: cddbd v1.5PL3 Copyright (c) Steve Scherf et al.
# Submitted via: audiograbber 1.83.01
#
DISCID=a80e0c0d
DTITLE=Kenny Wayne Shepherd - Trouble Is...
DYEAR=1997
DGENRE=Blues
TTITLE0=Slow Ride
TTITLE1=True Lies
TTITLE2=Blue on Black
TTITLE3=Everything Is Broken
TTITLE4=I Don't Live Today
TTITLE5=(Long) Gone
TTITLE6=Somehow, Somewhere, Someway
TTITLE7=I Found Love (When I Found You
TTITLE8=King's Highway
TTITLE9=I'm Through With Love
TTITLE10=Nothing to Do With Love
TTITLE11=Chase the Rainbow
TTITLE12=Trouble Is...
EXTD=
EXTT0=
EXTT1=
EXTT2=
EXTT3=
EXTT4=
EXTT5=
EXTT6=
EXTT7=
EXTT8=
EXTT9=
EXTT10=
EXTT11=
EXTT12=
PLAYORDER=
